<svg xmlns="http://www.w3.org/2000/svg" xmlns:xlink="http://www.w3.org/1999/xlink" viewBox="0 0 1249.95 350"><defs><symbol id="comet-2" data-name="comet" viewBox="0 0 1249.95 350"><path d="M547.31,25h0a25,25,0,0,0,25,25h66.56l0,.08a25,25,0,0,1,0,50h-286a25,25,0,1,0,0,50H515.79A25,25,0,0,1,513.9,200l.07,0H416.75a25,25,0,0,0-25,25h0a25,25,0,0,0,25,25H580.18a25,25,0,0,1,23.63,25h0a25,25,0,0,1-25,25H265.45a25,25,0,0,0-25,25h0a25,25,0,0,0,25,25H1075V0H572.31A25,25,0,0,0,547.31,25Z" style="fill:#f8542d"/><circle cx="1074.95" cy="175" r="175" style="fill:#f8542d"/><path d="M743.08,100h65.67a25,25,0,0,1,25,25h-.3a24.75,24.75,0,0,1-24.7,25H601.84a25,25,0,0,0-25,25h0a25,25,0,0,0,25,25H880.13a25,25,0,0,1,25,25h0a25,25,0,0,1-25,25H681.85a25,25,0,0,0-25,25h0a25,25,0,0,0,25,25H1075V50H743.08a25,25,0,0,0-25,25h0A25,25,0,0,0,743.08,100Z" style="fill:#d81212"/><circle cx="1074.95" cy="175" r="125" style="fill:#fff"/><path d="M486.37,25h0a25,25,0,0,1-25,25H437.8a25,25,0,0,1-25-25h0a25,25,0,0,1,25-25h23.57A25,25,0,0,1,486.37,25Z" style="fill:#f8542d"/><path d="M364.65,25h0a25,25,0,0,1-25,25H196.5a25,25,0,0,1-25-25h0a25,25,0,0,1,25-25H339.65A25,25,0,0,1,364.65,25Z" style="fill:#f8542d"/><path d="M190.34,325h0a25,25,0,0,1-25,25H25A25,25,0,0,1,0,325H0a25,25,0,0,1,25-25H165.34A25,25,0,0,1,190.34,325Z" style="fill:#f8542d"/><path d="M335.62,225h0a25,25,0,0,1-25,25H170.28a25,25,0,0,1-25-25h0a25,25,0,0,1,25-25H310.62A25,25,0,0,1,335.62,225Z" style="fill:#f8542d"/><path d="M185.66,125h0a25,25,0,0,1-25,25H129.9a25,25,0,0,1-25-25h0a25,25,0,0,1,25-25h30.76A25,25,0,0,1,185.66,125Z" style="fill:#f8542d"/></symbol></defs><title>comet</title><g id="Layer_2" data-name="Layer 2"><g id="comet"><use width="1249.95" height="350" xlink:href="#comet-2"/></g></g></svg>